<svg width="94" height="94" viewBox="0 0 94 94" fill="none" xmlns="http://www.w3.org/2000/svg">
<g clip-path="url(#clip0_34_51)">
<path d="M2.99146 1C1.1768 20.5823 4.08033 29.6345 1.1768 47C0.0879765 65.2892 4.44322 76.004 2.99146 93L47.9957 39.3333L2.99146 1Z" fill="#FBD2B9"/>
<path d="M93 47L2.99146 1L47.9957 39.3333L70.4979 58.5L93 47Z" fill="#F48F51"/>
<path d="M2.99146 93L47.9957 70L70.4979 58.5L47.9957 39.3333L2.99146 93Z" fill="#F8BC97"/>
<path d="M2.99146 1L3.219 0.554774L2.5617 0.218856L2.49359 0.953864L2.99146 1ZM2.99146 93L2.49327 92.9575L2.41658 93.8553L3.219 93.4452L2.99146 93ZM1.1768 47L0.683646 46.9175L0.679263 46.9438L0.677684 46.9703L1.1768 47ZM93 47L93.2275 47.4452L94.0987 47L93.2275 46.5548L93 47ZM47.9957 70L48.2233 70.4452L48.2233 70.4452L47.9957 70ZM47.9957 39.3333L48.32 38.9527L48.32 38.9527L47.9957 39.3333ZM2.49359 0.953864C1.58321 10.7779 1.85656 17.9653 1.99255 24.8412C2.12847 31.7127 2.12774 38.2807 0.683646 46.9175L1.66995 47.0825C3.12939 38.3539 3.12867 31.713 2.99236 24.8214C2.85614 17.9343 2.58505 10.8044 3.48932 1.04614L2.49359 0.953864ZM0.677684 46.9703C0.130484 56.1617 0.952061 63.4509 1.72317 70.539C2.49433 77.6277 3.21462 84.5125 2.49327 92.9575L3.48964 93.0426C4.22006 84.4915 3.48861 77.5209 2.7173 70.4309C1.94593 63.3403 1.13429 56.1275 1.67592 47.0297L0.677684 46.9703ZM2.76392 1.44523L92.7725 47.4452L93.2275 46.5548L3.219 0.554774L2.76392 1.44523ZM47.7682 69.5548L2.76392 92.5548L3.219 93.4452L48.2233 70.4452L47.7682 69.5548ZM92.7725 46.5548L70.2703 58.0548L70.7254 58.9452L93.2275 47.4452L92.7725 46.5548ZM70.2703 58.0548L47.7682 69.5548L48.2233 70.4452L70.7254 58.9452L70.2703 58.0548ZM70.8221 58.1194L48.32 38.9527L47.6715 39.714L70.1736 58.8806L70.8221 58.1194ZM48.32 38.9527L3.31567 0.619363L2.66724 1.38064L47.6715 39.714L48.32 38.9527ZM3.37458 93.3213L48.3789 39.6546L47.6126 39.0121L2.60834 92.6787L3.37458 93.3213Z" fill="black"/>
</g>
<defs>
<clipPath id="clip0_34_51">
<rect width="94" height="94" fill="white"/>
</clipPath>
</defs>
</svg>
